<svg width="61" height="64" viewBox="0 0 61 64" fill="none" xmlns="http://www.w3.org/2000/svg">
<path d="M30.9083 29.9214L32.4211 27.7593L39.7343 17.3126C40.5162 16.1977 41.2945 15.0817 42.0696 13.9647C42.1274 13.8737 42.2088 13.8002 42.3045 13.752C42.4007 13.7037 42.5082 13.6826 42.6153 13.6908C48.3367 13.6908 54.058 13.6908 59.7794 13.6908C60.1584 13.6908 60.274 13.8036 60.274 14.1838C60.274 17.8357 60.274 21.4758 60.274 25.1041C60.274 25.4875 60.1679 25.5842 59.7762 25.5842H56.5641V52.1069C56.6639 52.1069 56.7665 52.1069 56.8857 52.1069H59.8115C60.181 52.1069 60.2934 52.2162 60.2934 52.5835V63.504C60.2934 63.897 60.1904 64 59.8051 64H44.9249C44.4944 64 44.4014 63.9002 44.4014 63.4589C44.4014 59.3966 44.4014 55.3312 44.4014 51.2627V51.0178H44.096C40.2763 51.0178 36.4562 51.0178 32.6366 51.0178C32.459 51.0309 32.2811 50.9944 32.123 50.9126C31.9649 50.8308 31.8325 50.7066 31.7404 50.5535C31.3808 50.0028 30.9887 49.4743 30.5935 48.9169C30.1567 49.5353 29.7393 50.1284 29.3088 50.7211L22.9464 59.8176C22.031 61.1258 21.1125 62.4276 20.2003 63.7362C20.1489 63.8211 20.0754 63.8902 19.9877 63.9363C19.8999 63.9819 19.8013 64.0032 19.7025 63.9968H7.86375C7.68709 63.9968 7.51367 63.9968 7.40766 63.8103C7.30169 63.6233 7.40766 63.4878 7.5008 63.327L15.3055 52.2036L23.9774 39.8299C24.0127 39.7815 24.0416 39.7332 24.0834 39.6688L16.4457 28.8162H16.3879C16.3879 28.8903 16.3879 28.9644 16.3879 29.0385V47.4633C16.3879 48.3916 16.3879 49.3208 16.3879 50.2508C16.4006 50.3579 16.3888 50.4663 16.3532 50.5679C16.3177 50.6696 16.2594 50.7622 16.1828 50.8376C16.1062 50.913 16.0133 50.97 15.9114 51.0043C15.8094 51.0382 15.701 51.0481 15.5946 51.0336H0.820271C0.711996 51.0504 0.601328 51.0418 0.496938 51.0084C0.392547 50.9749 0.297281 50.918 0.218547 50.8417C0.139859 50.7649 0.079872 50.6714 0.0432834 50.5679C0.00669487 50.464 -0.00549968 50.3534 0.00769027 50.2445C0.00769027 46.4763 0.00769027 42.7106 0.00769027 38.947C-0.00644827 38.8377 0.00488939 38.7266 0.0408004 38.6224C0.0767114 38.5183 0.136246 38.4239 0.214708 38.3468C0.29317 38.2696 0.388437 38.2118 0.492962 38.1778C0.597443 38.1439 0.708428 38.1347 0.817064 38.1511H3.54065V12.8917H0.845973C0.261415 12.8917 0.00769027 12.6403 0.00769027 12.0539C0.00769027 8.31389 0.00769027 4.57386 0.00769027 0.833887C-0.00884234 0.720869 0.00136545 0.605539 0.0375023 0.497214C0.073594 0.388887 0.134619 0.290606 0.215611 0.210307C0.296558 0.130009 0.395256 0.0699464 0.503622 0.034974C0.612032 1.66256e-06 0.727084 -0.00890383 0.83956 0.00898382H15.5111C16.0892 0.00898382 16.359 0.269987 16.359 0.843554V22.2652C16.4144 22.21 16.4669 22.1519 16.5164 22.0912L23.775 11.6994C26.4087 7.93581 29.04 4.1711 31.6694 0.405327C31.7544 0.27611 31.8714 0.171294 32.0087 0.101223C32.146 0.0311522 32.2991 -0.00174738 32.4532 0.00576821H44.1638C44.3097 -0.0115096 44.4574 0.0154751 44.5879 0.0832474C44.7185 0.151019 44.8255 0.256469 44.896 0.385995C44.9619 0.52162 44.9868 0.67391 44.9669 0.823611C44.9466 0.973308 44.8829 1.11369 44.7835 1.22701L37.043 12.2955L28.5317 24.4725C28.3229 24.7722 28.1013 25.0686 27.9054 25.378C27.8818 25.4198 27.8678 25.4664 27.8645 25.5144C27.8612 25.5623 27.8686 25.6104 27.8861 25.6551C28.8584 27.0643 29.8378 28.4681 30.8247 29.8666C30.8509 29.8876 30.8789 29.9059 30.9083 29.9214ZM44.3982 29.277C44.3241 29.364 44.2758 29.4123 44.2374 29.467C41.9933 32.6743 39.7451 35.8805 37.4924 39.0855C37.4531 39.1299 37.4315 39.1872 37.4315 39.2467C37.4315 39.3061 37.4531 39.3635 37.4924 39.4078C39.7537 42.6301 42.0118 45.8598 44.2663 49.0972C44.2898 49.1401 44.3079 49.1853 44.321 49.2327L44.3883 49.1744L44.3982 29.277Z" fill="white"/>
</svg>
