<svg width="30" height="30" viewBox="0 0 30 30" fill="none" xmlns="http://www.w3.org/2000/svg">
<path d="M5.75892 27C5.70646 27.0001 5.65451 26.9898 5.60604 26.9697C5.55756 26.9497 5.51352 26.9203 5.47643 26.8832C5.43934 26.8461 5.40993 26.8021 5.38989 26.7536C5.36985 26.7051 5.35957 26.6532 5.35964 26.6007C5.35964 26.0454 5.35582 25.4902 5.35201 24.9354C5.34382 23.6738 5.33564 22.3691 5.37164 21.084C5.39673 20.19 5.63182 19.6058 6.09001 19.2965C6.58092 18.9638 7.27201 18.9791 8.2571 19.3445C8.30675 19.363 8.35224 19.3911 8.39092 19.4273C8.42961 19.4635 8.46071 19.507 8.48243 19.5553C8.50415 19.6036 8.51606 19.6558 8.51745 19.7087C8.51885 19.7617 8.50971 19.8144 8.49056 19.8638C7.57637 22.2142 8.27674 24.132 10.464 25.2638C13.2235 26.6902 17.8789 25.8153 20.6302 23.3547C23.8959 20.4322 25.4548 16.6341 25.8442 10.6538C25.9059 9.64002 25.692 8.62849 25.2254 7.7264C24.7588 6.82431 24.0568 6.06527 23.1939 5.52976C21.443 4.46175 19.3162 4.52339 17.3602 5.69776C16.1668 6.41449 15.1298 6.59503 14.2784 6.23449C13.4002 5.86194 12.7838 4.93957 12.4478 3.49248C12.4239 3.38926 12.4419 3.28076 12.498 3.19085C12.5541 3.10093 12.6435 3.03697 12.7468 3.01302C12.85 2.98908 12.9585 3.00712 13.0484 3.06318C13.1383 3.11924 13.2023 3.20872 13.2262 3.31193C13.4989 4.49612 13.9598 5.23194 14.5898 5.49867C15.1898 5.75449 15.9862 5.59085 16.9489 5.01321C19.1684 3.68012 21.5962 3.62012 23.6095 4.84957C24.5962 5.4618 25.3989 6.32956 25.9325 7.36089C26.4661 8.39222 26.7108 9.54869 26.6406 10.7078C26.3722 14.8314 25.5071 20.0634 21.1626 23.952C18.1375 26.6591 13.1733 27.5678 10.0969 25.9773C7.65983 24.7173 6.76583 22.5442 7.60419 19.9734C7.43645 19.8981 7.25504 19.8579 7.07117 19.8554C6.8873 19.8528 6.70486 19.888 6.5351 19.9587C6.30874 20.1109 6.18546 20.4971 6.16801 21.1042C6.13255 22.3751 6.14128 23.6727 6.14946 24.9273C6.15274 25.4842 6.15655 26.0411 6.15655 26.598C6.15691 26.6505 6.1469 26.7026 6.1271 26.7512C6.1073 26.7999 6.07809 26.8442 6.04115 26.8815C6.00422 26.9189 5.96027 26.9485 5.91184 26.9689C5.86341 26.9892 5.81144 26.9998 5.75892 27V27ZM3.39927 27C3.29338 27 3.19182 26.9579 3.11694 26.8831C3.04207 26.8082 3 26.7066 3 26.6007V21.2907C3.00818 19.3347 3.75218 17.7758 5.04164 17.0149C5.67824 16.6759 6.3916 16.507 7.11263 16.5247C7.83366 16.5424 8.53789 16.746 9.15711 17.1158C14.3935 16.416 14.2037 12.889 13.9828 8.81067L13.9718 8.61267C11.2724 7.57631 9.9982 5.86685 10.0773 3.38666C10.0807 3.28077 10.126 3.18056 10.2033 3.10809C10.2416 3.0722 10.2865 3.0442 10.3356 3.02569C10.3847 3.00718 10.4369 2.99852 10.4894 3.00021C10.5418 3.00189 10.5934 3.01388 10.6412 3.0355C10.689 3.05712 10.7321 3.08795 10.768 3.12621C10.8038 3.16448 10.8318 3.20944 10.8503 3.25853C10.8689 3.30761 10.8775 3.35986 10.8758 3.4123C10.8044 5.63612 11.9198 7.03631 14.4911 7.95322C14.5653 7.97976 14.63 8.02762 14.677 8.0908C14.7241 8.15397 14.7515 8.22964 14.7557 8.30831L14.7802 8.76704C14.994 12.7069 15.2362 17.1725 9.13092 17.9242C9.04793 17.9343 8.96384 17.9183 8.89038 17.8783C7.65601 17.2036 6.40037 17.1403 5.44801 17.7022C4.40782 18.3169 3.80782 19.626 3.80018 21.2934C3.79473 22.5071 3.79637 23.7213 3.80018 24.9349V26.6007C3.80026 26.6533 3.78992 26.7054 3.76978 26.754C3.74964 26.8026 3.72009 26.8467 3.68282 26.8838C3.64556 26.9209 3.60132 26.9503 3.55266 26.9702C3.50399 26.9902 3.45186 27.0003 3.39927 27V27ZM14.2129 25.0364C14.1145 25.0362 14.0196 24.9998 13.9465 24.934C13.8733 24.8682 13.827 24.7777 13.8164 24.6799C13.8059 24.582 13.8318 24.4838 13.8893 24.4039C13.9468 24.324 14.0317 24.2682 14.1278 24.2471C18.4789 23.298 21.2133 21.0671 22.4875 17.4289C22.5225 17.3289 22.5958 17.247 22.6912 17.201C22.7867 17.1551 22.8964 17.149 22.9964 17.184C23.0964 17.219 23.1783 17.2923 23.2243 17.3877C23.2702 17.4831 23.2763 17.5929 23.2413 17.6929C21.8679 21.6163 18.9426 24.0164 14.2986 25.0293C14.2704 25.0348 14.2417 25.0372 14.2129 25.0364V25.0364Z" fill="white"/>
</svg>
