<svg width="30" height="30" viewBox="0 0 30 30" fill="none" xmlns="http://www.w3.org/2000/svg">
<path d="M15.4073 26.9984C14.0838 26.995 12.7797 26.68 11.6006 26.0789C10.4214 25.4777 9.40045 24.6074 8.62026 23.5382C7.84006 22.4691 7.32258 21.2313 7.10972 19.925C6.89687 18.6187 6.99461 17.2807 7.39505 16.0192C8.68951 11.7741 11.2654 8.23713 13.8767 4.74594C15.6299 2.4003 15.2949 2.4434 17.028 4.72303C19.3922 7.83237 21.6184 11.0426 23.083 14.698C25.1723 19.9146 22.963 25.0346 17.9821 26.6051C17.1528 26.8831 16.2818 27.0162 15.4073 26.9984V26.9984ZM22.6564 16.7431C21.4083 12.2154 18.6247 8.49733 15.8443 4.80813C15.5808 4.45901 15.3915 4.39137 15.0953 4.78304C12.3089 8.46787 9.53122 12.1871 8.26403 16.7076C7.96639 17.8051 7.92695 18.9566 8.14879 20.0718C8.37063 21.1871 8.84772 22.2359 9.54268 23.1359C10.2376 24.0359 11.1316 24.7628 12.1545 25.2595C13.1773 25.7563 14.3013 26.0094 15.4384 25.9991C16.5756 26.0156 17.7011 25.7684 18.7267 25.2768C19.7523 24.7852 20.6499 24.0626 21.3493 23.1657C22.0486 22.2689 22.5306 21.2221 22.7574 20.1077C22.9842 18.9932 22.9497 17.8414 22.6564 16.7425V16.7431ZM14.1838 24.3206C14.6087 24.4422 15.152 24.757 15.3724 24.1668C15.6304 23.4767 14.93 23.5214 14.5433 23.4031C12.2036 22.6841 10.5993 21.3394 10.4733 18.7063C10.4558 18.3468 10.3604 17.9944 9.92779 18.0403C9.41503 18.0948 9.46794 18.5312 9.47776 18.9076C9.47776 21.3482 11.3608 23.5149 14.1838 24.3206V24.3206Z" fill="white"/>
</svg>
